HIERARCHY
ROOT Hips
{
	OFFSET	0.00	0.00	0.00
	CHANNELS 6 Xposition Yposition Zposition Zrotation Xrotation Yrotation
	JOINT LeftUpLeg
	{
		OFFSET	 0.126116	-0.065224	 0.014019
		CHANNELS 3 Zrotation Xrotation Yrotation
		JOINT LeftLeg
		{
			OFFSET	 0.000000	 0.569914	 0.000000
			CHANNELS 3 Zrotation Xrotation Yrotation
			JOINT LeftFoot
			{
				OFFSET	 0.000000	 0.544423	 0.000000
				CHANNELS 3 Zrotation Xrotation Yrotation
				JOINT LeftToeBase
				{
					OFFSET	 0.000000	 0.207117	 0.000000
					CHANNELS 3 Zrotation Xrotation Yrotation
					End Site
					{
						OFFSET	 0.000000	 0.207117	 0.000000
					}
				}
			}
		}
	}
	JOINT RightUpLeg
	{
		OFFSET	-0.124023	-0.065224	 0.008373
		CHANNELS 3 Zrotation Xrotation Yrotation
		JOINT RightLeg
		{
			OFFSET	 0.000000	 0.570047	 0.000000
			CHANNELS 3 Zrotation Xrotation Yrotation
			JOINT RightFoot
			{
				OFFSET	 0.000000	 0.544354	 0.000000
				CHANNELS 3 Zrotation Xrotation Yrotation
				JOINT RightToeBase
				{
					OFFSET	 0.000000	 0.207540	 0.000000
					CHANNELS 3 Zrotation Xrotation Yrotation
					End Site
					{
						OFFSET	 0.000000	 0.207540	 0.000000
					}
				}
			}
		}
	}
	JOINT Spine
	{
		OFFSET	 0.000184	 0.117403	 0.007763
		CHANNELS 3 Zrotation Xrotation Yrotation
		JOINT Spine1
		{
			OFFSET	 0.000000	 0.137269	 0.000000
			CHANNELS 3 Zrotation Xrotation Yrotation
			JOINT Spine2
			{
				OFFSET	 0.000000	 0.156879	 0.000000
				CHANNELS 3 Zrotation Xrotation Yrotation
				JOINT LeftShoulder
				{
					OFFSET	 0.080501	 0.160143	 0.002496
					CHANNELS 3 Zrotation Xrotation Yrotation
					JOINT LeftArm
					{
						OFFSET	 0.000000	 0.164363	 0.000000
						CHANNELS 3 Zrotation Xrotation Yrotation
						JOINT LeftForeArm
						{
							OFFSET	 0.000000	 0.364576	 0.000000
							CHANNELS 3 Zrotation Xrotation Yrotation
							JOINT LeftHand
							{
								OFFSET	 0.000000	 0.360812	 0.000000
								CHANNELS 3 Zrotation Xrotation Yrotation
								JOINT LeftHandIndex1
								{
									OFFSET	 0.000000	 0.086006	 0.000000
									CHANNELS 3 Zrotation Xrotation Yrotation
									JOINT LeftHandIndex2
									{
										OFFSET	 0.000000	 0.047237	 0.000000
										CHANNELS 3 Zrotation Xrotation Yrotation
										JOINT LeftHandIndex3
										{
											OFFSET	-0.004284	 0.038165	 0.000551
											CHANNELS 3 Zrotation Xrotation Yrotation
											End Site
											{
												OFFSET	-0.004284	 0.038165	 0.000551
											}
										}
									}
								}
							}
						}
					}
				}
				JOINT Neck
				{
					OFFSET	 0.000000	 0.176489	 0.000000
					CHANNELS 3 Zrotation Xrotation Yrotation
					JOINT Head
					{
						OFFSET	 0.000000	 0.077941	 0.001747
						CHANNELS 3 Zrotation Xrotation Yrotation
						End Site
						{
							OFFSET	 0.000000	 0.077941	 0.001747
						}
					}
				}
				JOINT RightShoulder
				{
					OFFSET	-0.080363	 0.159706	-0.000306
					CHANNELS 3 Zrotation Xrotation Yrotation
					JOINT RightArm
					{
						OFFSET	 0.000000	 0.164196	 0.000000
						CHANNELS 3 Zrotation Xrotation Yrotation
						JOINT RightForeArm
						{
							OFFSET	 0.000000	 0.365611	 0.000000
							CHANNELS 3 Zrotation Xrotation Yrotation
							JOINT RightHand
							{
								OFFSET	 0.000000	 0.360648	 0.000000
								CHANNELS 3 Zrotation Xrotation Yrotation
								JOINT RightHandIndex1
								{
									OFFSET	 0.000000	 0.069977	 0.000000
									CHANNELS 3 Zrotation Xrotation Yrotation
									JOINT RightHandIndex2
									{
										OFFSET	 0.000000	 0.052305	 0.000000
										CHANNELS 3 Zrotation Xrotation Yrotation
										JOINT RightHandIndex3
										{
											OFFSET	 0.009002	 0.042196	 0.000782
											CHANNELS 3 Zrotation Xrotation Yrotation
											End Site
											{
												OFFSET	 0.009002	 0.042196	 0.000782
											}
										}
									}
								}
							}
						}
					}
				}
			}
		}
	}
}
MOTION
Frames:    7
Frame Time: 0.03333334
 0.436237	 1.273761	 0.406576	 0.675849	-2.346555	-177.251100	 175.156900	 5.743946	 17.874020	 3.449508	-12.761600	 5.972743	 5.762350	 69.584640	-1.637597	 1.292262	 28.425850	-2.713146	-177.640700	 7.690824	-16.320690	-2.345235	-12.018740	 0.790155	 1.725450	 67.882230	-6.078006	-1.288183	 28.361890	 2.710176	-1.049660	 5.048883	-12.359770	 3.598704	-1.900974	-6.214440	-2.312703	 2.147847	 18.448660	-117.459200	-0.779890	 89.958450	-2.178652	 1.261448	-7.780840	 35.936110	-2.734147	 35.592700	-50.907990	-2.464426	-10.488420	-6.580301	 5.266122	 0.000000	 0.000000	 0.000000	 0.000000	 0.000000	 0.000000	 0.000000	 4.795020	 27.116100	 1.713064	-3.638643	-17.228210	 4.933470	 116.287700	-0.440201	-90.569130	 0.895182	 6.156189	 18.631030	-29.169310	 0.666210	-57.031120	-41.766960	-40.271640	-6.907742	 15.208500	 5.323790	 0.000000	 0.000000	 0.000000	 0.000000	 0.000000	 0.000000	 0.000000
 0.436154	 1.274442	 0.407553	 0.734383	-2.577253	-177.226900	 175.196200	 6.049244	 17.917000	 3.455177	-12.781870	 6.030496	 5.723486	 69.454200	-1.718164	 1.292262	 28.425850	-2.713146	-177.641500	 7.898181	-16.307750	-2.307366	-11.830350	 0.715388	 1.628621	 67.629620	-5.878016	-1.288183	 28.361890	 2.710176	-0.976843	 4.775362	-12.148550	 3.547369	-1.069131	-6.137918	-2.153890	 0.884765	 18.114190	-117.704100	-0.854510	 89.925040	-2.763820	 1.400111	-7.176442	 36.811780	-2.791499	 34.971630	-49.995520	-4.211050	-11.541500	-6.580301	 5.266122	 0.000000	 0.000000	 0.000000	 0.000000	 0.000000	 0.000000	 0.000000	 4.966160	 27.651940	 1.570840	-3.635103	-17.710300	 4.899681	 116.673900	-0.546723	-90.532140	 1.481306	 6.502507	 18.209920	-30.050460	 0.684489	-56.536590	-41.679470	-40.722130	-6.851295	 15.208500	 5.323790	 0.000000	 0.000000	 0.000000	 0.000000	 0.000000	 0.000000	 0.000000
 0.436116	 1.275029	 0.409039	 0.779171	-2.884474	-177.194700	 175.201300	 6.486245	 17.980040	 3.479865	-12.870040	 6.110868	 5.677514	 69.352050	-1.842784	 1.292262	 28.425850	-2.713146	-177.645100	 8.232912	-16.301460	-2.281959	-11.703660	 0.611650	 1.515570	 67.394540	-5.610622	-1.288183	 28.361890	 2.710176	-0.917025	 4.622319	-11.789740	 3.445367	-0.534198	-5.985941	-1.984163	 0.042393	 17.570330	-118.030300	-0.953719	 89.880000	-3.422768	 1.747185	-6.240277	 38.090700	-2.873938	 34.180350	-48.749780	-6.449505	-12.438570	-6.580301	 5.266122	 0.000000	 0.000000	 0.000000	 0.000000	 0.000000	 0.000000	 0.000000	 5.197856	 28.365260	 1.377416	-3.643765	-18.235550	 4.823985	 117.188400	-0.688223	-90.481770	 2.055428	 6.966288	 17.674360	-31.230940	 0.708704	-55.923730	-41.100680	-40.904840	-7.013274	 15.208500	 5.323790	 0.000000	 0.000000	 0.000000	 0.000000	 0.000000	 0.000000	 0.000000
 0.436096	 1.275524	 0.411294	 0.819102	-3.293164	-177.151700	 175.174000	 7.102200	 18.066360	 3.529452	-13.046990	 6.221192	 5.609854	 69.268260	-2.013628	 1.292262	 28.425850	-2.713146	-177.637100	 8.751152	-16.292130	-2.277301	-11.680530	 0.469522	 1.414800	 67.175170	-5.286872	-1.288183	 28.361890	 2.710176	-0.859515	 4.565814	-11.248150	 3.273092	-0.140889	-5.740980	-1.778579	-0.540822	 16.757350	-118.465700	-1.085630	 89.819080	-4.213496	 2.431073	-4.800316	 39.882480	-2.986962	 33.179350	-47.155100	-9.476315	-13.378200	-6.580301	 5.266122	 0.000000	 0.000000	 0.000000	 0.000000	 0.000000	 0.000000	 0.000000	 5.513932	 29.316370	 1.111989	-3.665451	-18.858660	 4.698371	 117.875200	-0.876341	-90.412550	 2.646160	 7.729116	 16.979960	-32.780350	 0.740014	-55.181210	-39.977550	-40.968660	-7.477339	 15.208500	 5.323790	 0.000000	 0.000000	 0.000000	 0.000000	 0.000000	 0.000000	 0.000000
 0.436084	 1.275825	 0.414060	 0.851724	-3.739452	-177.105000	 175.112200	 7.819895	 18.164500	 3.605954	-13.319460	 6.346845	 5.531447	 69.227100	-2.209539	 1.292262	 28.425850	-2.713146	-177.608900	 9.388505	-16.285930	-2.299772	-11.792470	 0.310338	 1.341878	 67.013240	-4.950971	-1.288183	 28.361890	 2.710176	-0.807961	 4.611378	-10.595020	 3.049303	 0.121497	-5.434054	-1.561462	-0.822278	 15.779970	-118.944300	-1.230071	 89.750950	-4.925308	 3.391337	-3.025302	 41.770210	-3.102901	 32.136450	-45.454780	-12.945010	-14.262740	-6.580301	 5.266122	 0.000000	 0.000000	 0.000000	 0.000000	 0.000000	 0.000000	 0.000000	 5.870780	 30.360430	 0.810259	-3.697590	-19.490150	 4.537796	 118.630400	-1.082090	-90.333890	 3.071637	 8.742495	 16.226400	-34.308540	 0.770454	-54.457430	-38.491340	-41.041020	-8.215912	 15.208500	 5.323790	 0.000000	 0.000000	 0.000000	 0.000000	 0.000000	 0.000000	 0.000000
 0.445426	 1.263065	 0.497459	 1.398082	-17.495610	-174.342900	 170.729500	 30.493730	 21.788910	 5.982006	-21.419730	 12.949730	 7.949871	 68.525050	-13.431110	 1.292262	 28.425850	-2.713146	-176.878400	 32.536520	-13.221150	-4.229409	-20.991960	-4.130339	 1.964867	 66.644910	 1.998154	-1.288183	 28.361890	 2.710176	 0.987238	 8.682857	 4.547484	 0.308459	 3.464668	 1.998999	 0.703402	 4.252674	-7.761041	-122.666100	 7.748667	 94.338840	 5.975443	 19.907350	 11.484320	 48.538710	-3.489758	 22.008390	 26.038740	-50.049390	 18.805820	-6.580301	 5.266122	 0.000000	 0.000000	 0.000000	 0.000000	 0.000000	 0.000000	 0.000000	 8.334879	 35.645830	-2.801093	-3.707520	-26.530280	-1.426240	 125.426600	 6.745180	-94.714450	-10.880040	 26.421450	 6.922135	-38.409650	 0.849231	-42.237340	 19.256510	-60.097500	 11.395970	 15.208500	 5.323790	 0.000000	 0.000000	 0.000000	 0.000000	 0.000000	 0.000000	 0.000000
 0.449548	 1.257496	 0.516065	 1.839734	-20.860900	-173.091900	 169.504400	 35.526550	 23.223150	 6.302206	-22.450850	 14.512890	 8.205474	 68.152400	-15.578030	 1.292262	 28.425850	-2.713146	-177.052600	 37.974870	-11.763520	-4.646241	-22.852380	-4.589242	 3.271774	 66.563160	 2.046609	-1.288183	 28.361890	 2.710176	 1.353645	 8.910770	 5.799863	 1.122312	 6.470759	 2.582064	 0.420722	 3.453429	-9.969825	-122.011500	 10.225140	 95.528430	 10.071570	 20.228320	 10.386950	 48.978560	-3.513183	 22.294640	 32.756260	-49.479220	 21.553720	-6.580301	 5.266122	 0.000000	 0.000000	 0.000000	 0.000000	 0.000000	 0.000000	 0.000000	 7.413748	 34.991730	-2.566694	-3.366269	-27.595920	-2.173938	 124.994800	 9.367220	-96.071990	-15.888800	 27.575150	 8.100136	-38.859140	 0.857555	-40.547710	 29.991710	-63.748150	 18.924030	 15.208500	 5.323790	 0.000000	 0.000000	 0.000000	 0.000000	 0.000000	 0.000000	 0.000000
